<svg width="225" height="56" viewBox="0 0 225 56" fill="none" xmlns="http://www.w3.org/2000/svg"><g filter="url(#filter0_i_2127_2146)"><path fill="#EE3643" d="M0 0h224.681v56H0z"/></g><path fill-rule="evenodd" clip-rule="evenodd" d="M162.227 16.274v17.624h-2.158V16.274h-3.836v-1.958h9.831v1.958h-3.837zm-8.308 10.364c-.376.55-.847.942-1.415 1.175-.567.233-1.243.35-2.026.35-.368 0-.783-.028-1.247-.084a9.985 9.985 0 01-1.151-.196v6.015h-2.158V14.595a9.907 9.907 0 011.835-.433 14.846 14.846 0 012.002-.126c.959 0 1.774.117 2.445.35.672.233 1.215.62 1.631 1.16.416.541.719 1.26.911 2.155.192.895.288 2.004.288 3.328 0 1.362-.092 2.5-.276 3.413-.184.914-.463 1.646-.839 2.196zm-1.223-8.126c-.12-.672-.308-1.203-.563-1.595a2.088 2.088 0 00-.972-.825c-.391-.158-.859-.238-1.402-.238h-1.679v10.35h1.679c.543 0 1.011-.079 1.402-.237.392-.159.716-.434.972-.825.255-.392.443-.923.563-1.595.12-.671.18-1.51.18-2.518 0-1.006-.06-1.846-.18-2.517zm-12.169 10.35h-4.795l-1.079 5.036h-2.158l4.076-19.582h3.117l4.076 19.582h-2.158l-1.079-5.036zm-2.35-11.749h-.095l-1.991 9.791h4.077l-1.991-9.79zm-10.358 2.238h-.12l-3.477 12.029h-2.158l-3.476-12.029h-.12l-.72 14.547h-2.158l.96-19.582h2.637l3.908 13.427h.096l3.909-13.427h2.637l.959 19.582h-2.158l-.719-14.547zM111.706 32.08c-.448.765-.987 1.306-1.619 1.623-.631.317-1.354.475-2.17.475-.815 0-1.538-.158-2.169-.475-.632-.317-1.171-.858-1.619-1.623-.448-.764-.787-1.795-1.019-3.09-.232-1.297-.348-2.924-.348-4.882 0-1.959.116-3.586.348-4.882.232-1.296.571-2.326 1.019-3.09.448-.766.987-1.306 1.619-1.623.631-.318 1.354-.476 2.169-.476.816 0 1.539.159 2.17.476.632.317 1.171.857 1.619 1.622.448.765.787 1.795 1.019 3.091.232 1.296.348 2.923.348 4.882 0 1.958-.116 3.585-.348 4.881-.232 1.296-.571 2.327-1.019 3.091zm-1.043-12.113c-.168-1.081-.388-1.939-.659-2.573-.272-.634-.592-1.072-.96-1.315-.367-.242-.743-.364-1.127-.364-.383 0-.759.122-1.126.364-.368.243-.688.68-.96 1.315-.271.634-.491 1.492-.659 2.573-.168 1.082-.252 2.462-.252 4.14 0 1.68.084 3.06.252 4.14.168 1.082.388 1.94.659 2.575.272.634.592 1.072.96 1.314.367.243.743.364 1.126.364.384 0 .76-.121 1.127-.364.368-.242.688-.68.96-1.314.271-.635.491-1.493.659-2.574.168-1.082.252-2.462.252-4.14 0-1.679-.084-3.059-.252-4.14zm-12.936 4.98h-5.035v8.952h-2.158V14.316h2.158v8.672h5.035v-8.672h2.158v19.582h-2.158v-8.952zm-11.389 8.952l-2.997-8.393-2.997 8.393h-2.158l3.596-10.071-3.236-9.511h2.157l2.638 7.832 2.638-7.832h2.158l-3.237 9.51 3.596 10.072h-2.158zM68.715 14.316h8.152v1.958h-5.994v6.434h5.275v1.958h-5.275v7.273h5.994v1.959h-8.152V14.316zM62.96 33.898h-2.158V16.274h-3.837v-1.958h9.831v1.958H62.96v17.624z" fill="#fff"/><defs><filter id="filter0_i_2127_2146" x="0" y="0" width="224.681" height="56" filterUnits="userSpaceOnUse" color-interpolation-filters="sRGB"><feFlood flood-opacity="0" result="BackgroundImageFix"/><feBlend in="SourceGraphic" in2="BackgroundImageFix" result="shape"/><feColorMatrix in="SourceAlpha" values="0 0 0 0 0 0 0 0 0 0 0 0 0 0 0 0 0 0 127 0" result="hardAlpha"/><feOffset dy="-5"/><feComposite in2="hardAlpha" operator="arithmetic" k2="-1" k3="1"/><feColorMatrix values="0 0 0 0 0 0 0 0 0 0 0 0 0 0 0 0 0 0 0.24 0"/><feBlend in2="shape" result="effect1_innerShadow_2127_2146"/></filter></defs></svg>