<svg width="90" height="90" viewBox="0 0 90 90" fill="none" xmlns="http://www.w3.org/2000/svg"><path d="M82.111 20.028h-3.345l.004-5.98c.002-4.014-3.262-7.282-7.277-7.284L46.108 6.75h-.003a5.375 5.375 0 00-3.826 1.585L4.382 46.23a7.232 7.232 0 00-2.132 5.15c0 1.945.757 3.773 2.132 5.148l24.594 24.594a7.258 7.258 0 005.148 2.129 7.26 7.26 0 005.148-2.129l23.86-23.86a1.67 1.67 0 10-2.363-2.363l-23.86 23.86a3.943 3.943 0 01-5.57 0L6.745 54.166a3.914 3.914 0 01-1.154-2.785c0-1.053.41-2.042 1.154-2.786l37.897-37.896c.39-.391.91-.607 1.463-.607h.001l25.385.015a3.944 3.944 0 013.937 3.941l-.008 14h-7.525a2.333 2.333 0 01-1.66-.692 6.13 6.13 0 001.925-1.302 6.166 6.166 0 000-8.709 6.165 6.165 0 00-8.71 0 6.166 6.166 0 000 8.71 6.132 6.132 0 003.138 1.68 5.69 5.69 0 005.307 3.655h7.523l-.004 8.009c0 .553-.216 1.071-.606 1.462l-4.587 4.587a1.67 1.67 0 102.362 2.363l4.588-4.587a5.377 5.377 0 001.584-3.823l.005-8.011h3.351a5.687 5.687 0 005.68-5.68 5.687 5.687 0 00-5.68-5.681zm-20.298-.321c.55-.55 1.27-.824 1.992-.824a2.81 2.81 0 011.992.824c.174.174.317.366.436.57a5.703 5.703 0 00-3.801 3.879 2.8 2.8 0 01-.62-.465 2.82 2.82 0 010-3.984zm20.298 8.34h-3.35l.003-4.678h3.347c1.29 0 2.34 1.05 2.34 2.34a2.342 2.342 0 01-2.34 2.338z" fill="#CA2C37"/><path d="M29.218 48.903a1.67 1.67 0 002.057 1.162l17.151-4.774a1.671 1.671 0 00-.896-3.219l-17.15 4.774a1.671 1.671 0 00-1.161 2.057zm7.55 2.205a4.894 4.894 0 00-1.443 3.484c0 1.315.512 2.552 1.443 3.483a4.91 4.91 0 003.483 1.44c1.261 0 2.523-.48 3.483-1.44a4.932 4.932 0 000-6.967 4.932 4.932 0 00-6.966 0zm4.603 4.604a1.586 1.586 0 01-2.705-1.121 1.582 1.582 0 012.705-1.12 1.586 1.586 0 010 2.24zm3.191-14.552a4.932 4.932 0 000-6.966 4.894 4.894 0 00-3.484-1.443 4.892 4.892 0 00-3.483 1.443 4.932 4.932 0 000 6.967c.96.96 2.222 1.44 3.483 1.44 1.262 0 2.523-.48 3.484-1.44zm-4.604-4.604c.3-.3.697-.464 1.12-.464a1.586 1.586 0 011.12 2.705 1.586 1.586 0 01-2.24 0 1.587 1.587 0 010-2.24z" fill="#CA2C37"/><path d="M18.867 45.451a1.67 1.67 0 00-2.363 0l-4.747 4.747a1.67 1.67 0 000 2.363l21.186 21.186a1.668 1.668 0 002.362 0L66.983 42.07a1.67 1.67 0 000-2.363L45.796 18.521a1.671 1.671 0 00-2.362 0L25.956 36a1.671 1.671 0 002.362 2.363l16.297-16.297 18.823 18.823-29.314 29.314-18.823-18.824 3.566-3.566a1.67 1.67 0 000-2.362zm47.81 4.232c-.44 0-.87.18-1.181.49-.31.31-.49.742-.49 1.181 0 .44.18.87.49 1.181.31.31.741.49 1.181.49.44 0 .87-.18 1.181-.49.31-.31.49-.742.49-1.181 0-.44-.18-.87-.49-1.181a1.685 1.685 0 00-1.181-.49z" fill="#CA2C37"/><path d="M23.592 43.087c.312-.31.49-.74.49-1.181 0-.44-.178-.869-.49-1.181a1.68 1.68 0 00-1.181-.49c-.44 0-.87.179-1.181.49-.311.31-.49.742-.49 1.18 0 .442.179.871.49 1.182a1.672 1.672 0 002.362 0z" fill="#CA2C37"/></svg>